PathFileType	4	(X/Y/Z)	OpenSim_Sub02_EMGStiffKnee_Magnet.trc
DataRate	CameraRate	NumFrames	NumMarkers	Units	OrigDataRate	OrigDataStartFrame	OrigNumFrames
100	100	33	8	m	100	1	7890
Frame#	Time	torso_imu_offset_imu	pelvis_imu_offset_imu	tibia_r_imu_offset_imu	femur_r_imu_offset_imu	tibia_l_imu_offset_imu	femur_l_imu_offset_imu	toes_r_imu_offset_imu	toes_l_imu_offset_imu
				X1	Y1	Z1	X2	Y2	Z2	X3	Y3	Z3	X4	Y4	Z4	X5	Y5	Z5	X6	Y6	Z6	X7	Y7	Z7	X8		Y8	Z8	

1	0	-0.93566856	-0.19789740	-0.05414808	-0.66208117	0.20495853	-0.62889995	-0.53304710	-0.53081629	-0.37103855	-0.74122046	-0.40387437	0.07804008	-0.65358200	0.52699331	-0.02255600	-0.65937412	0.45082014	0.28706003	-0.53034105	-0.43402433	-0.48421145	-0.64557060	-0.12377133	-0.52358733
2	0.01000000	-0.94091642	-0.19582436	-0.05372226	-0.66591498	0.20277368	-0.63181743	-0.53751139	-0.53163124	-0.37169231	-0.74894257	-0.40394724	0.07716669	-0.65524478	0.52702937	-0.01794789	-0.66477864	0.44785816	0.28877040	-0.53344283	-0.43254361	-0.48262966	-0.64143693	-0.12572954	-0.52191049
3	0.02000000	-0.94050510	-0.19335305	-0.05479317	-0.66511972	0.20686073	-0.63044595	-0.53606312	-0.53643871	-0.37274096	-0.74840230	-0.40309168	0.07933447	-0.65522301	0.52762982	-0.02466104	-0.66824589	0.44746008	0.28432841	-0.53429370	-0.43351405	-0.48324828	-0.64307153	-0.12866456	-0.52530468
4	0.03000000	-0.94016558	-0.19319916	-0.05268683	-0.66966893	0.20509180	-0.62820207	-0.53442924	-0.53057687	-0.37734219	-0.74228469	-0.40331033	0.07803789	-0.65543811	0.53079869	-0.02241870	-0.66051472	0.44986358	0.28587016	-0.52957941	-0.43567530	-0.48543874	-0.64281259	-0.12931149	-0.52090972
5	0.04000000	-0.94083151	-0.19408900	-0.05361230	-0.66571594	0.20424301	-0.63100614	-0.53533825	-0.52856533	-0.37398896	-0.74253182	-0.41041449	0.07667190	-0.65359340	0.52980840	-0.02054225	-0.65836636	0.45374446	0.28374897	-0.53116313	-0.43724912	-0.48354903	-0.63977123	-0.13006359	-0.51801150
6	0.05000000	-0.93967908	-0.19184355	-0.05113209	-0.66755582	0.20809466	-0.63290750	-0.53439699	-0.53272386	-0.37759841	-0.74379125	-0.40726442	0.07710474	-0.65085378	0.52738427	-0.01757971	-0.65925585	0.45336463	0.28313653	-0.53603925	-0.43599618	-0.48317973	-0.64263126	-0.12804284	-0.51946399
7	0.06000000	-0.94332382	-0.19344997	-0.05019426	-0.67137669	0.20434638	-0.63215009	-0.53521588	-0.53519555	-0.38244017	-0.74007998	-0.40508675	0.07556984	-0.65256223	0.52981038	-0.01854595	-0.66264677	0.44922409	0.28185228	-0.53041740	-0.43531685	-0.48139206	-0.64168449	-0.12874761	-0.52106930
8	0.07000000	-0.94103143	-0.19426131	-0.05246086	-0.66459593	0.20229732	-0.63177310	-0.53400510	-0.53342112	-0.38048775	-0.74275259	-0.40858392	0.07517807	-0.65141913	0.52854104	-0.02084431	-0.66622979	0.45126742	0.28626326	-0.53120594	-0.43770450	-0.48200147	-0.64164486	-0.12733411	-0.52029627
9	0.08000000	-0.93767730	-0.19677584	-0.05147106	-0.66329452	0.20821829	-0.62968899	-0.53172846	-0.53004472	-0.37350728	-0.74290634	-0.40737575	0.07718423	-0.65748135	0.52606003	-0.01833827	-0.66288613	0.44644397	0.28793149	-0.53614158	-0.43519672	-0.48661095	-0.63844404	-0.12695781	-0.52239823
10	0.09000000	-0.93802559	-0.19629992	-0.05229992	-0.66236144	0.20702967	-0.63073617	-0.53181878	-0.53574865	-0.37260647	-0.73862562	-0.40544290	0.07635906	-0.65443469	0.52468409	-0.01912385	-0.66238433	0.44709417	0.28684623	-0.53362720	-0.43311227	-0.48446148	-0.63741949	-0.12810133	-0.51979204
11	0.10000000	-0.94059971	-0.19371676	-0.05186695	-0.66533416	0.20566804	-0.62949531	-0.53437851	-0.53355392	-0.37701428	-0.74601641	-0.40585312	0.07753286	-0.65044116	0.52509038	-0.01781972	-0.66400332	0.45109508	0.28298263	-0.53182531	-0.43540086	-0.48221583	-0.63874077	-0.12492290	-0.51878571
12	0.11000000	-0.94431130	-0.20084021	-0.05163465	-0.66660051	0.20340117	-0.63165957	-0.52750070	-0.53470783	-0.37556010	-0.74465743	-0.40197126	0.07907625	-0.65490621	0.52436638	-0.01692513	-0.66122571	0.44932726	0.28261788	-0.53221509	-0.43362144	-0.48780278	-0.64438745	-0.12453899	-0.52627191
13	0.12000000	-0.93737897	-0.19925947	-0.05311128	-0.66526130	0.20370953	-0.63051912	-0.52885764	-0.53446762	-0.37607895	-0.74084974	-0.40429085	0.07882959	-0.65662361	0.52727798	-0.02034488	-0.66284307	0.45233138	0.28802382	-0.52902727	-0.43427897	-0.48227055	-0.64180196	-0.12728382	-0.52505152
14	0.13000000	-0.93793892	-0.19599911	-0.05080526	-0.66444567	0.20140029	-0.62731959	-0.53282078	-0.52804124	-0.37671748	-0.74490450	-0.40319850	0.07874738	-0.65098201	0.53275649	-0.02072630	-0.65968044	0.44815816	0.28295916	-0.53195566	-0.43744386	-0.48172411	-0.63615069	-0.12878371	-0.52425741
15	0.14000000	-0.93980727	-0.19689140	-0.04624540	-0.66755269	0.20637760	-0.62806756	-0.52907255	-0.53175379	-0.37840773	-0.74698408	-0.40228941	0.07932289	-0.65200222	0.52895496	-0.01959220	-0.65802738	0.44707840	0.28552066	-0.53014685	-0.43712097	-0.48144176	-0.63569452	-0.12747417	-0.52332869
16	0.15000000	-0.93753916	-0.19550831	-0.05401174	-0.66787931	0.20292344	-0.63306538	-0.53136688	-0.53500646	-0.37370000	-0.73892771	-0.40426446	0.07680622	-0.65227980	0.52945539	-0.02224179	-0.66030788	0.45043764	0.28545164	-0.53385561	-0.43600359	-0.48278353	-0.63889858	-0.12622086	-0.52620312
17	0.16000000	-0.94085291	-0.19542990	-0.04765180	-0.66484302	0.20135321	-0.63206677	-0.53717980	-0.53956693	-0.37151216	-0.73413670	-0.40458922	0.07491426	-0.65575850	0.52742356	-0.02480016	-0.66344335	0.44716781	0.28499410	-0.53264341	-0.43546804	-0.48302675	-0.63995007	-0.12530227	-0.52183844
18	0.17000000	-0.94440763	-0.19614005	-0.04371905	-0.66452591	0.20382814	-0.62748367	-0.53336908	-0.53443533	-0.37657012	-0.74014430	-0.40504542	0.07606636	-0.65372989	0.52727951	-0.02424911	-0.66269677	0.44957574	0.28543636	-0.53056482	-0.43709231	-0.48261305	-0.63926573	-0.12442744	-0.52107699
19	0.18000000	-0.93827675	-0.19459059	-0.04402989	-0.66759730	0.20522659	-0.62697044	-0.53192759	-0.53332854	-0.37414742	-0.74538731	-0.40077484	0.08008347	-0.65027228	0.53481052	-0.02080355	-0.66437346	0.44949344	0.27892796	-0.53168924	-0.43788494	-0.48784814	-0.63758278	-0.12735065	-0.52965948
20	0.19000000	-0.94071513	-0.19331154	-0.04559230	-0.66765187	0.20610543	-0.63114176	-0.52474402	-0.53562153	-0.36802785	-0.74213453	-0.40357212	0.07948223	-0.65080759	0.52928249	-0.02275067	-0.66365093	0.45288914	0.27949021	-0.52995614	-0.43829898	-0.48473115	-0.64146846	-0.12862793	-0.52328386
21	0.20000000	-0.94103126	-0.19430211	-0.05083929	-0.66720359	0.21083542	-0.62766925	-0.53023473	-0.53220122	-0.37460750	-0.74347265	-0.40736362	0.07260333	-0.65202064	0.53059090	-0.02770312	-0.66115778	0.45076060	0.28510332	-0.52900995	-0.43728762	-0.48437665	-0.64080828	-0.12803046	-0.52010267
22	0.21000000	-0.93837147	-0.19457776	-0.05362549	-0.66782307	0.20507431	-0.62329044	-0.53393602	-0.52983285	-0.36957076	-0.74146289	-0.40625285	0.08320160	-0.65621459	0.52548919	-0.02525536	-0.66286010	0.44788907	0.28865866	-0.52947526	-0.43404664	-0.48413587	-0.64038742	-0.12387021	-0.52640681
23	0.22000000	-0.94227748	-0.19576954	-0.05208694	-0.66621755	0.20286676	-0.63124751	-0.52606941	-0.53697254	-0.37115405	-0.74734173	-0.40522591	0.08407118	-0.65359039	0.52553283	-0.02041573	-0.65890723	0.45239631	0.28274412	-0.53316727	-0.43262244	-0.47875746	-0.63785637	-0.12335449	-0.52344123
24	0.23000000	-0.94449567	-0.20420440	-0.05045740	-0.66520061	0.20684716	-0.62975463	-0.52774878	-0.53581798	-0.37364102	-0.74713341	-0.40682279	0.07625589	-0.65421641	0.52801615	-0.02115699	-0.66220441	0.44977545	0.27778485	-0.53096898	-0.43775475	-0.48446762	-0.64191976	-0.12569252	-0.51935017
25	0.24000000	-0.94118565	-0.19690034	-0.04963567	-0.66521199	0.20505298	-0.63135940	-0.52714010	-0.53496455	-0.36873919	-0.74251038	-0.40013261	0.08067998	-0.65386197	0.53027514	-0.02235923	-0.66642153	0.44503415	0.28855446	-0.53090288	-0.43711211	-0.48484082	-0.64355727	-0.12478348	-0.51915307
26	0.25000000	-0.94043582	-0.19251784	-0.04395693	-0.67015483	0.20441184	-0.63001624	-0.53389284	-0.53479875	-0.37079282	-0.74680113	-0.40496343	0.08319716	-0.65479431	0.53179746	-0.01689068	-0.66248187	0.44717418	0.28339593	-0.53155250	-0.43572816	-0.48329590	-0.63799271	-0.12525495	-0.52144885
27	0.26000000	-0.93556428	-0.19476315	-0.04374947	-0.66928689	0.20745817	-0.62548116	-0.53458788	-0.53459668	-0.37916178	-0.74520476	-0.40704963	0.07577394	-0.65688555	0.53088385	-0.01672090	-0.66213417	0.45185067	0.27881896	-0.53091280	-0.43670364	-0.48135429	-0.63858752	-0.12571993	-0.51894838
28	0.27000000	-0.93645102	-0.19495293	-0.05096261	-0.66479290	0.20700479	-0.62781735	-0.52697141	-0.53113333	-0.36890992	-0.74242096	-0.40258401	0.08152186	-0.65440766	0.52788379	-0.02638782	-0.66197862	0.45169103	0.28623567	-0.53171792	-0.43701875	-0.48659883	-0.64077471	-0.12741285	-0.52224099
29	0.28000000	-0.94005098	-0.19710058	-0.04766507	-0.66458199	0.20282865	-0.62493289	-0.53025340	-0.53231961	-0.37232047	-0.74431608	-0.40300997	0.08236359	-0.65190844	0.52851201	-0.02309897	-0.66106976	0.44879956	0.28866592	-0.53016886	-0.43266234	-0.48597195	-0.64195580	-0.12297132	-0.52664754
30	0.29000000	-0.93757767	-0.19524319	-0.04618765	-0.66746018	0.20157972	-0.63109046	-0.52883914	-0.53514095	-0.38029946	-0.74784697	-0.40699638	0.07776860	-0.65580344	0.53235622	-0.02278526	-0.66022634	0.44399535	0.27844210	-0.52952611	-0.43592548	-0.48428773	-0.63903443	-0.12607049	-0.52304761
31	0.30000000	-0.94031455	-0.19640619	-0.05082436	-0.66752157	0.20287623	-0.62831124	-0.53204229	-0.53418437	-0.37378753	-0.74627552	-0.40459420	0.08193536	-0.65465358	0.52979680	-0.02170799	-0.66050305	0.44567483	0.27901253	-0.52775797	-0.43708451	-0.48132379	-0.63530724	-0.12796017	-0.52546478
32	0.31000000	-0.94077520	-0.19734350	-0.04817029	-0.66632563	0.20319844	-0.62450895	-0.53643778	-0.53252812	-0.37072086	-0.74375551	-0.40534767	0.08484912	-0.65232093	0.52620709	-0.02395956	-0.65747887	0.44799673	0.28173435	-0.52851316	-0.43579737	-0.48144771	-0.63571732	-0.12604076	-0.52549470
33	0.32000000	-0.93529623	-0.19463054	-0.04833241	-0.66501708	0.20220678	-0.62634429	-0.53616943	-0.53249638	-0.37333242	-0.74458166	-0.40943885	0.07999548	-0.65366336	0.52920515	-0.02248195	-0.66623204	0.44958337	0.28382585	-0.53250219	-0.43548806	-0.48328502	-0.64438888	-0.12553667	-0.52301058
